<svg width="24" height="24" viewBox="0 0 24 24" fill="none" xmlns="http://www.w3.org/2000/svg">
<path d="M12 2C13.3132 2 14.6136 2.25866 15.8268 2.7612C17.0401 3.26375 18.1425 4.00035 19.0711 4.92893C19.9997 5.85752 20.7362 6.95991 21.2388 8.17317C21.7413 9.38642 22 10.6868 22 12C22 13.3132 21.7413 14.6136 21.2388 15.8268C20.7362 17.0401 19.9997 18.1425 19.0711 19.0711C18.1425 19.9997 17.0401 20.7362 15.8268 21.2388C14.6136 21.7413 13.3132 22 12 22C9.34784 22 6.8043 20.9464 4.92893 19.0711C3.05357 17.1957 2 14.6522 2 12C2 9.34784 3.05357 6.8043 4.92893 4.92893C6.8043 3.05357 9.34784 2 12 2Z" fill="#4285F4"/>
<path d="M12 9.5C11.337 9.5 10.7011 9.76339 10.2322 10.2322C9.76339 10.7011 9.5 11.337 9.5 12C9.5 12.663 9.76339 13.2989 10.2322 13.7678C10.7011 14.2366 11.337 14.5 12 14.5C12.663 14.5 13.2989 14.2366 13.7678 13.7678C14.2366 13.2989 14.5 12.663 14.5 12C14.5 11.337 14.2366 10.7011 13.7678 10.2322C13.2989 9.76339 12.663 9.5 12 9.5Z" fill="#EA4335"/>
<path d="M12 7C13.3261 7 14.5979 7.52678 15.5355 8.46447C16.4732 9.40215 17 10.6739 17 12C17 13.3261 16.4732 14.5979 15.5355 15.5355C14.5979 16.4732 13.3261 17 12 17C10.6739 17 9.40215 16.4732 8.46447 15.5355C7.52678 14.5979 7 13.3261 7 12C7 10.6739 7.52678 9.40215 8.46447 8.46447C9.40215 7.52678 10.6739 7 12 7Z" fill="#FBBC05"/>
<path d="M12 4.5C14.1217 4.5 16.1566 5.34285 17.6569 6.84315C19.1571 8.34344 20 10.3783 20 12.5C20 14.6217 19.1571 16.6566 17.6569 18.1569C16.1566 19.6571 14.1217 20.5 12 20.5C9.87827 20.5 7.84344 19.6571 6.34315 18.1569C4.84285 16.6566 4 14.6217 4 12.5C4 10.3783 4.84285 8.34344 6.34315 6.84315C7.84344 5.34285 9.87827 4.5 12 4.5Z" fill="#34A853"/>
</svg>